<svg width="606" height="374" viewBox="0 0 606 374" fill="none" xmlns="http://www.w3.org/2000/svg">
<g opacity="0.3" clip-path="url(#clip0_47_10)">
<path d="M0.818004 208.858C26.1981 208.858 44.6465 195.86 58.4236 176.481C79.0893 147.401 89.3146 103.858 96.526 67.2553C100.143 48.9541 102.984 32.4205 106.041 20.2413C107.569 14.1624 109.162 9.13983 110.97 5.58305C112.779 2.02628 114.824 0 117.127 0C120.205 0 122.939 3.59988 125.372 9.54939C129.613 20.0042 133.122 37.6802 136.587 58.3742C141.775 89.3935 146.856 127.268 153.658 157.209C157.059 172.169 160.891 185.146 165.347 194.286C169.803 203.447 174.84 208.836 180.803 208.836C189.995 208.836 197.444 200.236 203.966 187.194C213.761 167.643 221.403 137.96 229.325 112.976C233.286 100.495 237.311 89.178 241.746 80.9004C246.18 72.6444 251.067 67.4493 256.642 67.4493C264.09 67.4493 270.312 76.6538 275.909 90.1049C284.304 110.303 291.494 140.158 299.782 164.84C308.091 189.544 317.369 208.836 329.898 208.836C346.839 208.815 356.462 189.501 366.342 169.69C376.202 149.923 386.341 129.639 403.799 129.661C421.257 129.617 431.396 149.923 441.17 169.69C450.986 189.501 460.436 208.793 477.055 208.815C493.824 208.815 503.683 199.244 512.337 189.608C520.969 179.973 528.482 170.057 540.128 170.057C551.774 170.057 559.438 179.951 568.393 189.587C577.369 199.222 587.702 208.793 605.117 208.793C605.57 208.793 605.935 209.763 605.935 210.971C605.935 212.178 605.57 213.169 605.117 213.169C587.487 213.169 576.81 203.361 567.768 193.639C558.727 183.896 551.408 174.433 540.128 174.433C528.848 174.433 521.701 183.896 512.983 193.639C504.265 203.361 494.061 213.212 477.055 213.191C459.898 213.212 449.931 192.928 440.158 173.161C430.342 153.351 420.719 134.058 403.778 134.036C386.836 134.08 377.214 153.372 367.333 173.182C357.473 192.95 347.334 213.234 329.876 213.212C321.05 213.212 313.753 204.094 307.424 190.643C297.93 170.445 290.461 140.503 282.69 115.778C278.815 103.427 274.854 92.3683 270.591 84.4787C266.329 76.5892 261.787 71.8252 256.599 71.8252C249.71 71.8252 243.941 80.2753 238.495 93.3383C230.336 112.911 223.082 142.702 214.299 167.772C205.538 192.799 195.162 213.212 180.739 213.212C171.03 213.212 163.517 199.632 157.468 179.757C148.384 149.923 142.378 105.733 136.458 69.1092C133.509 50.808 130.603 34.3821 127.417 22.7202C125.824 16.8785 124.188 12.2655 122.466 9.13983C120.744 6.01418 118.978 4.37591 117.041 4.35435C114.458 4.35435 112.37 7.24288 110.325 12.675C106.751 22.1813 103.63 39.5772 99.6689 60.228C93.7275 91.1827 85.8487 129.51 70.9737 160.055C56.1203 190.6 34.3137 213.234 0.731897 213.212C0.279834 213.212 -0.0861206 212.221 -0.0861206 211.014C-0.0861206 209.806 0.279834 208.836 0.731897 208.836" fill="#9CD2F2"/>
<path d="M0.818004 217.243C26.1981 217.243 44.6465 208.923 58.4236 196.485C79.0893 177.839 89.3146 149.945 96.526 126.47C100.143 114.744 102.984 104.138 106.041 96.3346C107.569 92.433 109.162 89.2211 110.97 86.9361C112.779 84.6512 114.824 83.3362 117.127 83.3578C120.205 83.3578 122.939 85.6643 125.372 89.4798C129.613 96.1837 133.122 107.501 136.587 120.779C141.775 140.676 146.856 164.948 153.658 184.133C157.059 193.726 160.891 202.025 165.347 207.91C169.803 213.773 174.84 217.243 180.803 217.243C189.995 217.243 197.444 211.725 203.966 203.361C213.761 190.815 221.403 171.803 229.325 155.787C233.286 147.789 237.311 140.525 241.746 135.222C246.18 129.919 251.067 126.6 256.642 126.6C264.09 126.6 270.312 132.506 275.909 141.128C284.304 154.062 291.494 173.204 299.782 189.026C308.091 204.87 317.369 217.222 329.898 217.222C346.839 217.222 356.462 204.827 366.342 192.13C376.202 179.455 386.341 166.457 403.799 166.479C421.257 166.479 431.396 179.455 441.17 192.13C450.986 204.827 460.436 217.2 477.055 217.222C493.824 217.222 503.683 211.1 512.337 204.913C520.969 198.727 528.482 192.389 540.128 192.389C551.774 192.389 559.438 198.727 568.393 204.913C577.369 211.1 587.702 217.222 605.117 217.222C605.57 217.222 605.935 217.847 605.935 218.623C605.935 219.399 605.57 220.024 605.117 220.024C587.487 220.024 576.81 213.73 567.768 207.5C558.727 201.249 551.408 195.191 540.128 195.191C528.848 195.191 521.701 201.27 512.983 207.5C504.265 213.73 494.061 220.046 477.055 220.024C459.898 220.024 449.931 207.026 440.158 194.372C430.342 181.676 420.719 169.302 403.778 169.281C386.836 169.281 377.214 181.676 367.333 194.372C357.473 207.047 347.334 220.046 329.876 220.024C321.05 220.024 313.753 214.182 307.424 205.56C297.93 192.605 290.461 173.42 282.69 157.576C278.815 149.643 274.854 142.573 270.591 137.529C266.329 132.463 261.787 129.423 256.599 129.423C249.71 129.423 243.941 134.856 238.495 143.219C230.336 155.765 223.082 174.864 214.299 190.923C205.538 206.961 195.162 220.046 180.739 220.046C171.03 220.046 163.517 211.337 157.468 198.597C148.384 179.477 142.378 151.152 136.458 127.677C133.509 115.929 130.603 105.41 127.417 97.9514C125.824 94.2006 124.188 91.2474 122.466 89.2427C120.744 87.2379 118.978 86.1817 117.041 86.1817C114.458 86.1817 112.37 88.0355 110.325 91.5276C106.751 97.628 103.63 108.773 99.6689 122.008C93.7275 141.861 85.8487 166.414 70.9737 185.987C56.1203 205.56 34.3137 220.067 0.731897 220.067C0.279834 220.067 -0.0861206 219.442 -0.0861206 218.666C-0.0861206 217.89 0.279834 217.265 0.731897 217.265" fill="#9CD2F2"/>
<path d="M0.818004 224.874C26.1981 224.874 44.6465 218.946 58.4236 210.087C79.0893 196.808 89.3146 176.933 96.526 160.206C100.143 151.842 102.984 144.297 106.041 138.736C107.569 135.955 109.162 133.67 110.97 132.032C112.779 130.415 114.824 129.466 117.127 129.488C120.205 129.488 122.939 131.126 125.372 133.864C129.613 138.628 133.122 146.711 136.587 156.153C141.775 170.315 146.856 187.625 153.658 201.292C157.059 208.125 160.891 214.053 165.347 218.235C169.803 222.417 174.84 224.874 180.803 224.874C189.995 224.874 197.444 220.951 203.966 214.98C213.761 206.056 221.403 192.497 229.325 181.094C233.286 175.403 237.311 170.229 241.746 166.457C246.18 162.685 251.067 160.313 256.642 160.313C264.09 160.313 270.312 164.517 275.909 170.66C284.304 179.886 291.494 193.51 299.782 204.784C308.091 216.058 317.369 224.874 329.898 224.874C346.839 224.874 356.462 216.058 366.342 207.004C376.202 197.972 386.341 188.703 403.799 188.724C421.257 188.724 431.396 197.972 441.17 207.004C450.986 216.058 460.436 224.853 477.055 224.874C493.824 224.874 503.683 220.52 512.337 216.101C520.969 211.703 528.482 207.177 540.128 207.177C551.774 207.177 559.438 211.703 568.393 216.101C577.369 220.498 587.702 224.874 605.117 224.874C605.57 224.874 605.935 225.327 605.935 225.866C605.935 226.405 605.57 226.857 605.117 226.857C587.487 226.857 576.81 222.374 567.768 217.933C558.727 213.493 551.408 209.16 540.128 209.16C528.848 209.16 521.701 213.493 512.983 217.933C504.265 222.374 494.061 226.857 477.055 226.857C459.898 226.857 449.931 217.61 440.158 208.578C430.342 199.524 420.719 190.729 403.778 190.708C386.836 190.708 377.214 199.524 367.333 208.578C357.473 217.61 347.334 226.857 329.876 226.857C321.05 226.857 313.753 222.697 307.424 216.554C297.93 207.327 290.461 193.661 282.69 182.365C278.815 176.718 274.854 171.674 270.591 168.074C266.329 164.474 261.787 162.297 256.599 162.297C249.71 162.297 243.941 166.155 238.495 172.126C230.336 181.072 223.082 194.674 214.299 206.099C205.538 217.524 195.162 226.836 180.739 226.836C171.03 226.836 163.517 220.628 157.468 211.552C148.384 197.929 142.378 177.752 136.458 161.025C133.509 152.661 130.603 145.159 127.417 139.835C125.824 137.162 124.188 135.05 122.466 133.627C120.744 132.204 118.978 131.45 117.041 131.45C114.458 131.45 112.37 132.765 110.325 135.244C106.751 139.576 103.63 147.531 99.6689 156.951C93.7275 171.091 85.8487 188.595 70.9737 202.52C56.1203 216.467 34.3137 226.793 0.731897 226.793C0.279834 226.793 -0.0861206 226.34 -0.0861206 225.801C-0.0861206 225.262 0.279834 224.81 0.731897 224.81" fill="#9CD2F2"/>
<path d="M0.818004 231.858C26.1981 231.858 44.6465 226.383 58.4236 218.213C79.0893 205.948 89.3146 187.604 96.526 172.169C100.143 164.452 102.984 157.49 106.041 152.338C107.569 149.772 109.162 147.66 110.97 146.151C112.779 144.642 114.824 143.78 117.127 143.801C120.205 143.801 122.939 145.31 125.372 147.832C129.613 152.23 133.122 159.688 136.587 168.419C141.775 181.503 146.856 197.476 153.658 210.087C157.059 216.403 160.891 221.856 165.347 225.715C169.803 229.574 174.84 231.858 180.803 231.858C189.995 231.858 197.444 228.237 203.966 222.74C213.761 214.484 221.403 201.982 229.325 191.441C233.286 186.181 237.311 181.395 241.746 177.925C246.18 174.433 251.067 172.256 256.642 172.256C264.09 172.256 270.312 176.136 275.909 181.805C284.304 190.32 291.494 202.909 299.782 213.32C308.091 223.732 317.369 231.88 329.898 231.88C346.839 231.88 356.462 223.732 366.342 215.39C376.202 207.047 386.341 198.489 403.799 198.511C421.257 198.511 431.396 207.047 441.17 215.39C450.986 223.753 460.436 231.88 477.055 231.88C493.824 231.88 503.683 227.849 512.337 223.775C520.969 219.701 528.482 215.519 540.128 215.54C551.774 215.54 559.438 219.722 568.393 223.775C577.369 227.849 587.702 231.88 605.117 231.88C605.57 231.88 605.935 232.29 605.935 232.807C605.935 233.324 605.57 233.734 605.117 233.734C587.487 233.734 576.81 229.595 567.768 225.499C558.727 221.404 551.408 217.394 540.128 217.394C528.848 217.394 521.701 221.382 512.983 225.499C504.265 229.595 494.061 233.755 477.055 233.734C459.898 233.734 449.931 225.198 440.158 216.855C430.342 208.513 420.719 200.365 403.778 200.365C386.836 200.365 377.214 208.513 367.333 216.855C357.473 225.198 347.334 233.755 329.876 233.734C321.05 233.734 313.753 229.897 307.424 224.206C297.93 215.691 290.461 203.059 282.69 192.648C278.815 187.431 274.854 182.775 270.591 179.455C266.329 176.136 261.787 174.131 256.599 174.131C249.71 174.131 243.941 177.688 238.495 183.206C230.336 191.462 223.082 204.029 214.299 214.592C205.538 225.133 195.162 233.755 180.739 233.755C171.03 233.755 163.517 228.021 157.468 219.658C148.384 207.09 142.378 188.444 136.458 173.01C133.509 165.293 130.603 158.373 127.417 153.459C125.824 151.001 124.188 149.04 122.466 147.725C120.744 146.41 118.978 145.72 117.041 145.72C114.458 145.72 112.37 146.927 110.325 149.234C106.751 153.243 103.63 160.572 99.6689 169.281C93.7275 182.344 85.8487 198.489 70.9737 211.359C56.1203 224.249 34.3137 233.777 0.731897 233.777C0.279834 233.777 -0.0861206 233.367 -0.0861206 232.85C-0.0861206 232.333 0.279834 231.923 0.731897 231.923" fill="#9CD2F2"/>
<path d="M0.818004 240.804C26.1981 240.804 44.6465 235.868 58.4236 228.496C79.0893 217.437 89.3146 200.861 96.526 186.935C100.143 179.973 102.984 173.678 106.041 169.044C107.569 166.737 109.162 164.819 110.97 163.461C112.779 162.103 114.824 161.327 117.127 161.327C120.205 161.327 122.939 162.685 125.372 164.97C129.613 168.957 133.122 175.683 136.587 183.551C141.775 195.364 146.856 209.763 153.658 221.167C157.059 226.857 160.891 231.794 165.347 235.286C169.803 238.778 174.84 240.826 180.803 240.826C189.995 240.826 197.444 237.549 203.966 232.591C213.761 225.154 221.403 213.859 229.325 204.353C233.286 199.61 237.311 195.299 241.746 192.152C246.18 189.005 251.067 187.043 256.642 187.043C264.09 187.043 270.312 190.557 275.909 195.666C284.304 203.361 291.494 214.721 299.782 224.098C308.091 233.497 317.369 240.847 329.898 240.847C346.839 240.847 356.462 233.497 366.342 225.952C376.202 218.429 386.341 210.712 403.799 210.712C421.257 210.712 431.396 218.429 441.17 225.952C450.986 233.497 460.436 240.826 477.055 240.847C493.824 240.847 503.683 237.204 512.337 233.54C520.969 229.875 528.482 226.103 540.128 226.103C551.774 226.103 559.438 229.875 568.393 233.54C577.369 237.204 587.702 240.847 605.117 240.847C605.57 240.847 605.935 241.214 605.935 241.688C605.935 242.162 605.57 242.529 605.117 242.529C587.487 242.529 576.81 238.8 567.768 235.092C558.727 231.384 551.408 227.784 540.128 227.784C528.848 227.784 521.701 231.384 512.983 235.092C504.265 238.8 494.061 242.529 477.055 242.529C459.898 242.529 449.931 234.812 440.158 227.289C430.342 219.744 420.719 212.415 403.778 212.393C386.836 212.393 377.214 219.744 367.333 227.289C357.473 234.812 347.334 242.529 329.876 242.529C321.05 242.529 313.753 239.058 307.424 233.949C297.93 226.254 290.461 214.872 282.69 205.474C278.815 200.774 274.854 196.571 270.591 193.575C266.329 190.578 261.787 188.768 256.599 188.768C249.71 188.768 243.941 191.979 238.495 196.959C230.336 204.396 223.082 215.756 214.299 225.284C205.538 234.812 195.162 242.572 180.739 242.572C171.03 242.572 163.517 237.398 157.468 229.854C148.384 218.515 142.378 201.68 136.458 187.754C133.509 180.792 130.603 174.541 127.417 170.1C125.824 167.88 124.188 166.112 122.466 164.926C120.744 163.741 118.978 163.116 117.041 163.116C114.458 163.116 112.37 164.215 110.325 166.284C106.751 169.906 103.63 176.524 99.6689 184.37C93.7275 196.161 85.8487 210.733 70.9737 222.352C56.1203 233.971 34.3137 242.593 0.731897 242.572C0.279834 242.572 -0.0861206 242.205 -0.0861206 241.731C-0.0861206 241.257 0.279834 240.89 0.731897 240.89" fill="#9CD2F2"/>
<path d="M0.818004 249.578C26.1981 249.578 44.6465 244.641 58.4236 237.269C79.0893 226.211 89.3146 209.634 96.526 195.709C100.143 188.746 102.984 182.452 106.041 177.817C107.569 175.511 109.162 173.592 110.97 172.234C112.779 170.876 114.824 170.1 117.127 170.1C120.205 170.1 122.939 171.458 125.372 173.743C129.613 177.731 133.122 184.456 136.587 192.324C141.775 204.137 146.856 218.537 153.658 229.94C157.059 235.631 160.891 240.567 165.347 244.059C169.803 247.551 174.84 249.599 180.803 249.599C189.995 249.599 197.444 246.323 203.966 241.365C213.761 233.928 221.403 222.632 229.325 213.126C233.286 208.384 237.311 204.072 241.746 200.925C246.18 197.778 251.067 195.816 256.642 195.816C264.09 195.816 270.312 199.33 275.909 204.439C284.304 212.134 291.494 223.495 299.782 232.872C308.091 242.27 317.369 249.621 329.898 249.621C346.839 249.621 356.462 242.27 366.342 234.725C376.202 227.202 386.341 219.485 403.799 219.485C421.257 219.485 431.396 227.202 441.17 234.725C450.986 242.27 460.436 249.599 477.055 249.621C493.824 249.621 503.683 245.978 512.337 242.313C520.969 238.649 528.482 234.876 540.128 234.876C551.774 234.876 559.438 238.649 568.393 242.313C577.369 245.978 587.702 249.621 605.117 249.621C605.57 249.621 605.935 249.987 605.935 250.461C605.935 250.936 605.57 251.302 605.117 251.302C587.487 251.302 576.81 247.573 567.768 243.865C558.727 240.158 551.408 236.558 540.128 236.558C528.848 236.558 521.701 240.158 512.983 243.865C504.265 247.573 494.061 251.302 477.055 251.302C459.898 251.302 449.931 243.585 440.158 236.062C430.342 228.517 420.719 221.188 403.778 221.167C386.836 221.167 377.214 228.517 367.333 236.062C357.473 243.585 347.334 251.302 329.876 251.302C321.05 251.302 313.753 247.832 307.424 242.723C297.93 235.027 290.461 223.645 282.69 214.247C278.815 209.548 274.854 205.344 270.591 202.348C266.329 199.352 261.787 197.541 256.599 197.541C249.71 197.541 243.941 200.753 238.495 205.732C230.336 213.169 223.082 224.529 214.299 234.057C205.538 243.585 195.162 251.345 180.739 251.345C171.03 251.345 163.517 246.172 157.468 238.627C148.384 227.288 142.378 210.453 136.458 196.528C133.509 189.565 130.603 183.314 127.417 178.873C125.824 176.653 124.188 174.885 122.466 173.7C120.744 172.514 118.978 171.889 117.041 171.889C114.458 171.889 112.37 172.988 110.325 175.058C106.751 178.679 103.63 185.297 99.6689 193.143C93.7275 204.935 85.8487 219.507 70.9737 231.125C56.1203 242.744 34.3137 251.367 0.731897 251.345C0.279834 251.345 -0.0861206 250.979 -0.0861206 250.505C-0.0861206 250.03 0.279834 249.664 0.731897 249.664" fill="#9CD2F2"/>
<path d="M0.818004 258.329C26.1981 258.329 44.6465 253.393 58.4236 246.021C79.0893 234.963 89.3146 218.386 96.526 204.461C100.143 197.498 102.984 191.203 106.041 186.569C107.569 184.262 109.162 182.344 110.97 180.986C112.779 179.628 114.824 178.852 117.127 178.852C120.205 178.852 122.939 180.21 125.372 182.495C129.613 186.483 133.122 193.208 136.587 201.076C141.775 212.889 146.856 227.289 153.658 238.692C157.059 244.383 160.891 249.319 165.347 252.811C169.803 256.303 174.84 258.351 180.803 258.351C189.995 258.351 197.444 255.074 203.966 250.117C213.761 242.68 221.403 231.384 229.325 221.878C233.286 217.136 237.311 212.824 241.746 209.677C246.18 206.53 251.067 204.568 256.642 204.568C264.09 204.568 270.312 208.082 275.909 213.191C284.304 220.886 291.494 232.246 299.782 241.623C308.091 251.022 317.369 258.373 329.898 258.373C346.839 258.373 356.462 251.022 366.342 243.477C376.202 235.954 386.341 228.237 403.799 228.237C421.257 228.237 431.396 235.954 441.17 243.477C450.986 251.022 460.436 258.351 477.055 258.373C493.824 258.373 503.683 254.73 512.337 251.065C520.969 247.4 528.482 243.628 540.128 243.628C551.774 243.628 559.438 247.4 568.393 251.065C577.369 254.73 587.702 258.373 605.117 258.373C605.57 258.373 605.935 258.739 605.935 259.213C605.935 259.687 605.57 260.054 605.117 260.054C587.487 260.054 576.81 256.325 567.768 252.617C558.727 248.909 551.408 245.31 540.128 245.31C528.848 245.31 521.701 248.909 512.983 252.617C504.265 256.325 494.061 260.054 477.055 260.054C459.898 260.054 449.931 252.337 440.158 244.814C430.342 237.269 420.719 229.94 403.778 229.918C386.836 229.918 377.214 237.269 367.333 244.814C357.473 252.337 347.334 260.054 329.876 260.054C321.05 260.054 313.753 256.583 307.424 251.475C297.93 243.779 290.461 232.397 282.69 222.999C278.815 218.3 274.854 214.096 270.591 211.1C266.329 208.104 261.787 206.293 256.599 206.293C249.71 206.293 243.941 209.505 238.495 214.484C230.336 221.921 223.082 233.281 214.299 242.809C205.538 252.337 195.162 260.097 180.739 260.097C171.03 260.097 163.517 254.924 157.468 247.379C148.384 236.04 142.378 219.205 136.458 205.28C133.509 198.317 130.603 192.066 127.417 187.625C125.824 185.405 124.188 183.637 122.466 182.452C120.744 181.266 118.978 180.641 117.041 180.641C114.458 180.641 112.37 181.74 110.325 183.81C106.751 187.431 103.63 194.049 99.6689 201.895C93.7275 213.687 85.8487 228.259 70.9737 239.877C56.1203 251.496 34.3137 260.119 0.731897 260.097C0.279834 260.097 -0.0861206 259.731 -0.0861206 259.256C-0.0861206 258.782 0.279834 258.416 0.731897 258.416" fill="#9CD2F2"/>
<path d="M0.818004 267.103C26.1981 267.103 44.6465 262.166 58.4236 254.794C79.0893 243.736 89.3146 227.159 96.526 213.234C100.143 206.271 102.984 199.977 106.041 195.342C107.569 193.036 109.162 191.117 110.97 189.759C112.779 188.401 114.824 187.625 117.127 187.625C120.205 187.625 122.939 188.983 125.372 191.268C129.613 195.256 133.122 201.982 136.587 209.85C141.775 221.662 146.856 236.062 153.658 247.465C157.059 253.156 160.891 258.092 165.347 261.584C169.803 265.077 174.84 267.124 180.803 267.124C189.995 267.124 197.444 263.848 203.966 258.89C213.761 251.453 221.403 240.158 229.325 230.651C233.286 225.909 237.311 221.598 241.746 218.45C246.18 215.303 251.067 213.342 256.642 213.342C264.09 213.342 270.312 216.855 275.909 221.964C284.304 229.66 291.494 241.02 299.782 250.397C308.091 259.795 317.369 267.146 329.898 267.146C346.839 267.146 356.462 259.795 366.342 252.251C376.202 244.727 386.341 237.01 403.799 237.01C421.257 237.01 431.396 244.727 441.17 252.251C450.986 259.795 460.436 267.124 477.055 267.146C493.824 267.146 503.683 263.503 512.337 259.838C520.969 256.174 528.482 252.401 540.128 252.401C551.774 252.401 559.438 256.174 568.393 259.838C577.369 263.503 587.702 267.146 605.117 267.146C605.57 267.146 605.935 267.512 605.935 267.987C605.935 268.461 605.57 268.827 605.117 268.827C587.487 268.827 576.81 265.098 567.768 261.39C558.727 257.683 551.408 254.083 540.128 254.083C528.848 254.083 521.701 257.683 512.983 261.39C504.265 265.098 494.061 268.827 477.055 268.827C459.898 268.827 449.931 261.11 440.158 253.587C430.342 246.042 420.719 238.713 403.778 238.692C386.836 238.692 377.214 246.042 367.333 253.587C357.473 261.11 347.334 268.827 329.876 268.827C321.05 268.827 313.753 265.357 307.424 260.248C297.93 252.552 290.461 241.171 282.69 231.772C278.815 227.073 274.854 222.869 270.591 219.873C266.329 216.877 261.787 215.066 256.599 215.066C249.71 215.066 243.941 218.278 238.495 223.258C230.336 230.694 223.082 242.055 214.299 251.582C205.538 261.11 195.162 268.87 180.739 268.87C171.03 268.87 163.517 263.697 157.468 256.152C148.384 244.814 142.378 227.978 136.458 214.053C133.509 207.09 130.603 200.839 127.417 196.398C125.824 194.178 124.188 192.411 122.466 191.225C120.744 190.039 118.978 189.414 117.041 189.414C114.458 189.414 112.37 190.514 110.325 192.583C106.751 196.204 103.63 202.822 99.6689 210.669C93.7275 222.46 85.8487 237.032 70.9737 248.651C56.1203 260.27 34.3137 268.892 0.731897 268.87C0.279834 268.87 -0.0861206 268.504 -0.0861206 268.03C-0.0861206 267.555 0.279834 267.189 0.731897 267.189" fill="#9CD2F2"/>
<path d="M0.818004 275.876C26.1981 275.876 44.6465 270.94 58.4236 263.568C79.0893 252.509 89.3146 235.933 96.526 222.007C100.143 215.045 102.984 208.75 106.041 204.116C107.569 201.809 109.162 199.891 110.97 198.533C112.779 197.175 114.824 196.398 117.127 196.398C120.205 196.398 122.939 197.757 125.372 200.042C129.613 204.029 133.122 210.755 136.587 218.623C141.775 230.436 146.856 244.835 153.658 256.239C157.059 261.929 160.891 266.866 165.347 270.358C169.803 273.85 174.84 275.898 180.803 275.898C189.995 275.898 197.444 272.621 203.966 267.663C213.761 260.226 221.403 248.931 229.325 239.425C233.286 234.682 237.311 230.371 241.746 227.224C246.18 224.077 251.067 222.115 256.642 222.115C264.09 222.115 270.312 225.629 275.909 230.738C284.304 238.433 291.494 249.793 299.782 259.17C308.091 268.569 317.369 275.919 329.898 275.919C346.839 275.919 356.462 268.569 366.342 261.024C376.202 253.501 386.341 245.784 403.799 245.784C421.257 245.784 431.396 253.501 441.17 261.024C450.986 268.569 460.436 275.898 477.055 275.919C493.824 275.919 503.683 272.276 512.337 268.612C520.969 264.947 528.482 261.175 540.128 261.175C551.774 261.175 559.438 264.947 568.393 268.612C577.369 272.276 587.702 275.919 605.117 275.919C605.57 275.919 605.935 276.286 605.935 276.76C605.935 277.234 605.57 277.601 605.117 277.601C587.487 277.601 576.81 273.871 567.768 270.164C558.727 266.456 551.408 262.856 540.128 262.856C528.848 262.856 521.701 266.456 512.983 270.164C504.265 273.871 494.061 277.601 477.055 277.601C459.898 277.601 449.931 269.884 440.158 262.36C430.342 254.816 420.719 247.487 403.778 247.465C386.836 247.465 377.214 254.816 367.333 262.36C357.473 269.884 347.334 277.601 329.876 277.601C321.05 277.601 313.753 274.13 307.424 269.021C297.93 261.326 290.461 249.944 282.69 240.546C278.815 235.846 274.854 231.643 270.591 228.647C266.329 225.65 261.787 223.84 256.599 223.84C249.71 223.84 243.941 227.051 238.495 232.031C230.336 239.468 223.082 250.828 214.299 260.356C205.538 269.884 195.162 277.644 180.739 277.644C171.03 277.644 163.517 272.47 157.468 264.926C148.384 253.587 142.378 236.752 136.458 222.826C133.509 215.864 130.603 209.612 127.417 205.172C125.824 202.952 124.188 201.184 122.466 199.998C120.744 198.813 118.978 198.188 117.041 198.188C114.458 198.188 112.37 199.287 110.325 201.356C106.751 204.978 103.63 211.596 99.6689 219.442C93.7275 231.233 85.8487 245.805 70.9737 257.424C56.1203 269.043 34.3137 277.665 0.731897 277.644C0.279834 277.644 -0.0861206 277.277 -0.0861206 276.803C-0.0861206 276.329 0.279834 275.962 0.731897 275.962" fill="#9CD2F2"/>
<path d="M0.818004 284.65C26.1981 284.65 44.6465 279.713 58.4236 272.341C79.0893 261.283 89.3146 244.706 96.526 230.781C100.143 223.818 102.984 217.524 106.041 212.889C107.569 210.582 109.162 208.664 110.97 207.306C112.779 205.948 114.824 205.172 117.127 205.172C120.205 205.172 122.939 206.53 125.372 208.815C129.613 212.803 133.122 219.528 136.587 227.396C141.775 239.209 146.856 253.609 153.658 265.012C157.059 270.703 160.891 275.639 165.347 279.131C169.803 282.623 174.84 284.671 180.803 284.671C189.995 284.671 197.444 281.395 203.966 276.437C213.761 269 221.403 257.704 229.325 248.198C233.286 243.456 237.311 239.144 241.746 235.997C246.18 232.85 251.067 230.888 256.642 230.888C264.09 230.888 270.312 234.402 275.909 239.511C284.304 247.206 291.494 258.567 299.782 267.944C308.091 277.342 317.369 284.693 329.898 284.693C346.839 284.693 356.462 277.342 366.342 269.797C376.202 262.274 386.341 254.557 403.799 254.557C421.257 254.557 431.396 262.274 441.17 269.797C450.986 277.342 460.436 284.671 477.055 284.693C493.824 284.693 503.683 281.05 512.337 277.385C520.969 273.721 528.482 269.948 540.128 269.948C551.774 269.948 559.438 273.721 568.393 277.385C577.369 281.05 587.702 284.693 605.117 284.693C605.57 284.693 605.935 285.059 605.935 285.533C605.935 286.008 605.57 286.374 605.117 286.374C587.487 286.374 576.81 282.645 567.768 278.937C558.727 275.229 551.408 271.63 540.128 271.63C528.848 271.63 521.701 275.229 512.983 278.937C504.265 282.645 494.061 286.374 477.055 286.374C459.898 286.374 449.931 278.657 440.158 271.134C430.342 263.589 420.719 256.26 403.778 256.239C386.836 256.239 377.214 263.589 367.333 271.134C357.473 278.657 347.334 286.374 329.876 286.374C321.05 286.374 313.753 282.904 307.424 277.795C297.93 270.099 290.461 258.717 282.69 249.319C278.815 244.62 274.854 240.416 270.591 237.42C266.329 234.424 261.787 232.613 256.599 232.613C249.71 232.613 243.941 235.825 238.495 240.804C230.336 248.241 223.082 259.601 214.299 269.129C205.538 278.657 195.162 286.417 180.739 286.417C171.03 286.417 163.517 281.244 157.468 273.699C148.384 262.36 142.378 245.525 136.458 231.6C133.509 224.637 130.603 218.386 127.417 213.945C125.824 211.725 124.188 209.957 122.466 208.772C120.744 207.586 118.978 206.961 117.041 206.961C114.458 206.961 112.37 208.06 110.325 210.13C106.751 213.751 103.63 220.369 99.6689 228.215C93.7275 240.007 85.8487 254.579 70.9737 266.197C56.1203 277.816 34.3137 286.439 0.731897 286.417C0.279834 286.417 -0.0861206 286.051 -0.0861206 285.576C-0.0861206 285.102 0.279834 284.736 0.731897 284.736" fill="#9CD2F2"/>
<path d="M0.818004 293.423C26.1981 293.423 44.6465 288.487 58.4236 281.114C79.0893 270.056 89.3146 253.479 96.526 239.554C100.143 232.591 102.984 226.297 106.041 221.662C107.569 219.356 109.162 217.437 110.97 216.079C112.779 214.721 114.824 213.945 117.127 213.945C120.205 213.945 122.939 215.303 125.372 217.588C129.613 221.576 133.122 228.302 136.587 236.17C141.775 247.982 146.856 262.382 153.658 273.785C157.059 279.476 160.891 284.412 165.347 287.905C169.803 291.397 174.84 293.445 180.803 293.445C189.995 293.445 197.444 290.168 203.966 285.21C213.761 277.773 221.403 266.478 229.325 256.971C233.286 252.229 237.311 247.918 241.746 244.771C246.18 241.623 251.067 239.662 256.642 239.662C264.09 239.662 270.312 243.175 275.909 248.284C284.304 255.98 291.494 267.34 299.782 276.717C308.091 286.115 317.369 293.466 329.898 293.466C346.839 293.466 356.462 286.115 366.342 278.571C376.202 271.048 386.341 263.331 403.799 263.331C421.257 263.331 431.396 271.048 441.17 278.571C450.986 286.115 460.436 293.445 477.055 293.466C493.824 293.466 503.683 289.823 512.337 286.159C520.969 282.494 528.482 278.722 540.128 278.722C551.774 278.722 559.438 282.494 568.393 286.159C577.369 289.823 587.702 293.466 605.117 293.466C605.57 293.466 605.935 293.833 605.935 294.307C605.935 294.781 605.57 295.147 605.117 295.147C587.487 295.147 576.81 291.418 567.768 287.711C558.727 284.003 551.408 280.403 540.128 280.403C528.848 280.403 521.701 284.003 512.983 287.711C504.265 291.418 494.061 295.147 477.055 295.147C459.898 295.147 449.931 287.43 440.158 279.907C430.342 272.363 420.719 265.033 403.778 265.012C386.836 265.012 377.214 272.363 367.333 279.907C357.473 287.43 347.334 295.147 329.876 295.147C321.05 295.147 313.753 291.677 307.424 286.568C297.93 278.873 290.461 267.491 282.69 258.092C278.815 253.393 274.854 249.19 270.591 246.193C266.329 243.197 261.787 241.386 256.599 241.386C249.71 241.386 243.941 244.598 238.495 249.578C230.336 257.015 223.082 268.375 214.299 277.902C205.538 287.43 195.162 295.191 180.739 295.191C171.03 295.191 163.517 290.017 157.468 282.472C148.384 271.134 142.378 254.298 136.458 240.373C133.509 233.411 130.603 227.159 127.417 222.719C125.824 220.498 124.188 218.731 122.466 217.545C120.744 216.36 118.978 215.734 117.041 215.734C114.458 215.734 112.37 216.834 110.325 218.903C106.751 222.525 103.63 229.142 99.6689 236.989C93.7275 248.78 85.8487 263.352 70.9737 274.971C56.1203 286.59 34.3137 295.212 0.731897 295.191C0.279834 295.191 -0.0861206 294.824 -0.0861206 294.35C-0.0861206 293.876 0.279834 293.509 0.731897 293.509" fill="#9CD2F2"/>
<path d="M0.818004 302.175C26.1981 302.175 44.6465 297.238 58.4236 289.866C79.0893 278.808 89.3146 262.231 96.526 248.306C100.143 241.343 102.984 235.049 106.041 230.414C107.569 228.108 109.162 226.189 110.97 224.831C112.779 223.473 114.824 222.697 117.127 222.697C120.205 222.697 122.939 224.055 125.372 226.34C129.613 230.328 133.122 237.053 136.587 244.921C141.775 256.734 146.856 271.134 153.658 282.537C157.059 288.228 160.891 293.164 165.347 296.656C169.803 300.148 174.84 302.196 180.803 302.196C189.995 302.196 197.444 298.92 203.966 293.962C213.761 286.525 221.403 275.229 229.325 265.723C233.286 260.981 237.311 256.67 241.746 253.522C246.18 250.375 251.067 248.414 256.642 248.414C264.09 248.414 270.312 251.927 275.909 257.036C284.304 264.732 291.494 276.092 299.782 285.469C308.091 294.867 317.369 302.218 329.898 302.218C346.839 302.218 356.462 294.867 366.342 287.322C376.202 279.799 386.341 272.082 403.799 272.082C421.257 272.082 431.396 279.799 441.17 287.322C450.986 294.867 460.436 302.196 477.055 302.218C493.824 302.218 503.683 298.575 512.337 294.91C520.969 291.246 528.482 287.473 540.128 287.473C551.774 287.473 559.438 291.246 568.393 294.91C577.369 298.575 587.702 302.218 605.117 302.218C605.57 302.218 605.935 302.584 605.935 303.059C605.935 303.533 605.57 303.899 605.117 303.899C587.487 303.899 576.81 300.17 567.768 296.462C558.727 292.755 551.408 289.155 540.128 289.155C528.848 289.155 521.701 292.755 512.983 296.462C504.265 300.17 494.061 303.899 477.055 303.899C459.898 303.899 449.931 296.182 440.158 288.659C430.342 281.114 420.719 273.785 403.778 273.764C386.836 273.764 377.214 281.114 367.333 288.659C357.473 296.182 347.334 303.899 329.876 303.899C321.05 303.899 313.753 300.429 307.424 295.32C297.93 287.624 290.461 276.243 282.69 266.844C278.815 262.145 274.854 257.941 270.591 254.945C266.329 251.949 261.787 250.138 256.599 250.138C249.71 250.138 243.941 253.35 238.495 258.329C230.336 265.766 223.082 277.126 214.299 286.654C205.538 296.182 195.162 303.942 180.739 303.942C171.03 303.942 163.517 298.769 157.468 291.224C148.384 279.886 142.378 263.05 136.458 249.125C133.509 242.162 130.603 235.911 127.417 231.47C125.824 229.25 124.188 227.483 122.466 226.297C120.744 225.111 118.978 224.486 117.041 224.486C114.458 224.486 112.37 225.586 110.325 227.655C106.751 231.276 103.63 237.894 99.6689 245.741C93.7275 257.532 85.8487 272.104 70.9737 283.723C56.1203 295.341 34.3137 303.964 0.731897 303.942C0.279834 303.942 -0.0861206 303.576 -0.0861206 303.102C-0.0861206 302.627 0.279834 302.261 0.731897 302.261" fill="#9CD2F2"/>
<path d="M0.818004 310.948C26.1981 310.948 44.6465 306.012 58.4236 298.64C79.0893 287.581 89.3146 271.005 96.526 257.079C100.143 250.117 102.984 243.822 106.041 239.188C107.569 236.881 109.162 234.963 110.97 233.605C112.779 232.246 114.824 231.47 117.127 231.47C120.205 231.47 122.939 232.85 125.372 235.113C129.613 239.101 133.122 245.805 136.587 253.695C141.775 265.508 146.856 279.907 153.658 291.31C157.059 297.001 160.891 301.938 165.347 305.43C169.803 308.922 174.84 310.97 180.803 310.97C189.995 310.97 197.444 307.693 203.966 302.735C213.761 295.298 221.403 284.003 229.325 274.497C233.286 269.754 237.311 265.443 241.746 262.296C246.18 259.149 251.067 257.187 256.642 257.187C264.09 257.187 270.312 260.701 275.909 265.809C284.304 273.505 291.494 284.865 299.782 294.242C308.091 303.641 317.369 310.991 329.898 310.991C346.839 310.991 356.462 303.641 366.342 296.096C376.202 288.573 386.341 280.856 403.799 280.856C421.257 280.856 431.396 288.573 441.17 296.096C450.986 303.641 460.436 310.97 477.055 310.991C493.824 310.991 503.683 307.348 512.337 303.684C520.969 300.019 528.482 296.247 540.128 296.247C551.774 296.247 559.438 300.019 568.393 303.684C577.369 307.348 587.702 310.991 605.117 310.991C605.57 310.991 605.935 311.358 605.935 311.832C605.935 312.306 605.57 312.673 605.117 312.673C587.487 312.673 576.81 308.943 567.768 305.236C558.727 301.528 551.408 297.928 540.128 297.928C528.848 297.928 521.701 301.528 512.983 305.236C504.265 308.943 494.061 312.673 477.055 312.673C459.898 312.673 449.931 304.956 440.158 297.432C430.342 289.888 420.719 282.559 403.778 282.537C386.836 282.537 377.214 289.888 367.333 297.432C357.473 304.956 347.334 312.673 329.876 312.673C321.05 312.673 313.753 309.202 307.424 304.072C297.93 296.376 290.461 284.994 282.69 275.596C278.815 270.897 274.854 266.693 270.591 263.697C266.329 260.701 261.787 258.89 256.599 258.89C249.71 258.89 243.941 262.102 238.495 267.081C230.336 274.54 223.082 285.878 214.299 295.406C205.538 304.934 195.162 312.694 180.739 312.694C171.03 312.694 163.517 307.521 157.468 299.976C148.384 288.616 142.378 271.802 136.458 257.877C133.509 250.914 130.603 244.663 127.417 240.222C125.824 238.002 124.188 236.234 122.466 235.049C120.744 233.863 118.978 233.238 117.041 233.238C114.458 233.238 112.37 234.337 110.325 236.407C106.751 240.028 103.63 246.646 99.6689 254.492C93.7275 266.284 85.8487 280.856 70.9737 292.474C56.1203 304.093 34.3137 312.716 0.731897 312.694C0.279834 312.694 -0.0861206 312.328 -0.0861206 311.854C-0.0861206 311.379 0.279834 311.013 0.731897 311.013" fill="#9CD2F2"/>
<path d="M0.818004 319.721C26.1981 319.721 44.6465 314.785 58.4236 307.413C79.0893 296.355 89.3146 279.778 96.526 265.853C100.143 258.89 102.984 252.595 106.041 247.961C107.569 245.654 109.162 243.736 110.97 242.378C112.779 241.02 114.824 240.244 117.127 240.244C120.205 240.244 122.939 241.623 125.372 243.887C129.613 247.875 133.122 254.579 136.587 262.468C141.775 274.281 146.856 288.681 153.658 300.084C157.059 305.775 160.891 310.711 165.347 314.203C169.803 317.695 174.84 319.743 180.803 319.743C189.995 319.743 197.444 316.466 203.966 311.509C213.761 304.072 221.403 292.776 229.325 283.27C233.286 278.528 237.311 274.216 241.746 271.069C246.18 267.922 251.067 265.96 256.642 265.96C264.09 265.96 270.312 269.474 275.909 274.583C284.304 282.278 291.494 293.638 299.782 303.015C308.091 312.414 317.369 319.765 329.898 319.765C346.839 319.765 356.462 312.414 366.342 304.869C376.202 297.346 386.341 289.629 403.799 289.629C421.257 289.629 431.396 297.346 441.17 304.869C450.986 312.414 460.436 319.743 477.055 319.765C493.824 319.765 503.683 316.122 512.337 312.457C520.969 308.792 528.482 305.02 540.128 305.02C551.774 305.02 559.438 308.792 568.393 312.457C577.369 316.122 587.702 319.765 605.117 319.765C605.57 319.765 605.935 320.131 605.935 320.605C605.935 321.079 605.57 321.446 605.117 321.446C587.487 321.446 576.81 317.717 567.768 314.009C558.727 310.301 551.408 306.702 540.128 306.702C528.848 306.702 521.701 310.301 512.983 314.009C504.265 317.717 494.061 321.446 477.055 321.446C459.898 321.446 449.931 313.729 440.158 306.206C430.342 298.661 420.719 291.332 403.778 291.31C386.836 291.31 377.214 298.661 367.333 306.206C357.473 313.729 347.334 321.446 329.876 321.446C321.05 321.446 313.753 317.975 307.424 312.845C297.93 305.149 290.461 293.768 282.69 284.369C278.815 279.67 274.854 275.467 270.591 272.47C266.329 269.474 261.787 267.663 256.599 267.663C249.71 267.663 243.941 270.875 238.495 275.855C230.336 283.313 223.082 294.652 214.299 304.179C205.538 313.707 195.162 321.468 180.739 321.468C171.03 321.468 163.517 316.294 157.468 308.749C148.384 297.411 142.378 280.575 136.458 266.65C133.509 259.687 130.603 253.436 127.417 248.996C125.824 246.775 124.188 245.008 122.466 243.822C120.744 242.637 118.978 242.011 117.041 242.011C114.458 242.011 112.37 243.111 110.325 245.18C106.751 248.802 103.63 255.419 99.6689 263.266C93.7275 275.057 85.8487 289.629 70.9737 301.248C56.1203 312.867 34.3137 321.489 0.731897 321.468C0.279834 321.468 -0.0861206 321.101 -0.0861206 320.627C-0.0861206 320.153 0.279834 319.786 0.731897 319.786" fill="#9CD2F2"/>
<path d="M0.818004 328.495C26.1981 328.495 44.6465 323.558 58.4236 316.186C79.0893 305.128 89.3146 288.551 96.526 274.626C100.143 267.663 102.984 261.369 106.041 256.734C107.569 254.428 109.162 252.509 110.97 251.151C112.779 249.793 114.824 249.017 117.127 249.017C120.205 249.017 122.939 250.375 125.372 252.66C129.613 256.648 133.122 263.374 136.587 271.242C141.775 283.054 146.856 297.454 153.658 308.857C157.059 314.548 160.891 319.484 165.347 322.976C169.803 326.469 174.84 328.516 180.803 328.516C189.995 328.516 197.444 325.24 203.966 320.282C213.761 312.845 221.403 301.55 229.325 292.043C233.286 287.301 237.311 282.99 241.746 279.843C246.18 276.695 251.067 274.734 256.642 274.734C264.09 274.734 270.312 278.247 275.909 283.356C284.304 291.052 291.494 302.412 299.782 311.789C308.091 321.187 317.369 328.538 329.898 328.538C346.839 328.538 356.462 321.187 366.342 313.643C376.202 306.12 386.341 298.402 403.799 298.402C421.257 298.402 431.396 306.12 441.17 313.643C450.986 321.187 460.436 328.516 477.055 328.538C493.824 328.538 503.683 324.895 512.337 321.23C520.969 317.566 528.482 313.794 540.128 313.794C551.774 313.794 559.438 317.566 568.393 321.23C577.369 324.895 587.702 328.538 605.117 328.538C605.57 328.538 605.935 328.904 605.935 329.379C605.935 329.853 605.57 330.219 605.117 330.219C587.487 330.219 576.81 326.49 567.768 322.782C558.727 319.075 551.408 315.475 540.128 315.475C528.848 315.475 521.701 319.075 512.983 322.782C504.265 326.49 494.061 330.219 477.055 330.219C459.898 330.219 449.931 322.502 440.158 314.979C430.342 307.434 420.719 300.105 403.778 300.084C386.836 300.084 377.214 307.434 367.333 314.979C357.473 322.502 347.334 330.219 329.876 330.219C321.05 330.219 313.753 326.749 307.424 321.618C297.93 313.923 290.461 302.541 282.69 293.143C278.815 288.443 274.854 284.24 270.591 281.244C266.329 278.247 261.787 276.437 256.599 276.437C249.71 276.437 243.941 279.648 238.495 284.628C230.336 292.065 223.082 303.425 214.299 312.953C205.538 322.481 195.162 330.241 180.739 330.241C171.03 330.241 163.517 325.067 157.468 317.523C148.384 306.184 142.378 289.349 136.458 275.423C133.509 268.461 130.603 262.21 127.417 257.769C125.824 255.549 124.188 253.781 122.466 252.595C120.744 251.41 118.978 250.785 117.041 250.785C114.458 250.785 112.37 251.884 110.325 253.954C106.751 257.575 103.63 264.193 99.6689 272.039C93.7275 283.83 85.8487 298.402 70.9737 310.021C56.1203 321.64 34.3137 330.262 0.731897 330.241C0.279834 330.241 -0.0861206 329.874 -0.0861206 329.4C-0.0861206 328.926 0.279834 328.56 0.731897 328.56" fill="#9CD2F2"/>
<path d="M0.818004 337.268C26.1981 337.268 44.6465 332.332 58.4236 324.96C79.0893 313.901 89.3146 297.325 96.526 283.399C100.143 276.437 102.984 270.142 106.041 265.508C107.569 263.201 109.162 261.283 110.97 259.925C112.779 258.567 114.824 257.791 117.127 257.791C120.205 257.791 122.939 259.149 125.372 261.434C129.613 265.421 133.122 272.147 136.587 280.015C141.775 291.828 146.856 306.227 153.658 317.631C157.059 323.321 160.891 328.258 165.347 331.75C169.803 335.242 174.84 337.29 180.803 337.29C189.995 337.29 197.444 334.013 203.966 329.055C213.761 321.618 221.403 310.323 229.325 300.817C233.286 296.074 237.311 291.763 241.746 288.616C246.18 285.469 251.067 283.507 256.642 283.507C264.09 283.507 270.312 287.021 275.909 292.13C284.304 299.825 291.494 311.185 299.782 320.562C308.091 329.961 317.369 337.311 329.898 337.311C346.839 337.311 356.462 329.961 366.342 322.416C376.202 314.893 386.341 307.176 403.799 307.176C421.257 307.176 431.396 314.893 441.17 322.416C450.986 329.961 460.436 337.29 477.055 337.311C493.824 337.311 503.683 333.668 512.337 330.004C520.969 326.339 528.482 322.567 540.128 322.567C551.774 322.567 559.438 326.339 568.393 330.004C577.369 333.668 587.702 337.311 605.117 337.311C605.57 337.311 605.935 337.678 605.935 338.152C605.935 338.626 605.57 338.993 605.117 338.993C587.487 338.993 576.81 335.264 567.768 331.556C558.727 327.848 551.408 324.248 540.128 324.248C528.848 324.248 521.701 327.848 512.983 331.556C504.265 335.264 494.061 338.993 477.055 338.993C459.898 338.993 449.931 331.276 440.158 323.753C430.342 316.208 420.719 308.879 403.778 308.857C386.836 308.857 377.214 316.208 367.333 323.753C357.473 331.276 347.334 338.993 329.876 338.993C321.05 338.993 313.753 335.522 307.424 330.392C297.93 322.696 290.461 311.315 282.69 301.916C278.815 297.217 274.854 293.013 270.591 290.017C266.329 287.021 261.787 285.21 256.599 285.21C249.71 285.21 243.941 288.422 238.495 293.401C230.336 300.838 223.082 312.198 214.299 321.726C205.538 331.254 195.162 339.014 180.739 339.014C171.03 339.014 163.517 333.841 157.468 326.296C148.384 314.958 142.378 298.122 136.458 284.197C133.509 277.234 130.603 270.983 127.417 266.542C125.824 264.322 124.188 262.555 122.466 261.369C120.744 260.183 118.978 259.558 117.041 259.558C114.458 259.558 112.37 260.658 110.325 262.727C106.751 266.348 103.63 272.966 99.6689 280.813C93.7275 292.604 85.8487 307.176 70.9737 318.795C56.1203 330.413 34.3137 339.036 0.731897 339.014C0.279834 339.014 -0.0861206 338.648 -0.0861206 338.174C-0.0861206 337.699 0.279834 337.333 0.731897 337.333" fill="#9CD2F2"/>
<path d="M0.818004 346.02C26.1981 346.02 44.6465 341.084 58.4236 333.711C79.0893 322.653 89.3146 306.076 96.526 292.151C100.143 285.188 102.984 278.894 106.041 274.259C107.569 271.953 109.162 270.034 110.97 268.676C112.779 267.318 114.824 266.542 117.127 266.542C120.205 266.542 122.939 267.922 125.372 270.185C129.613 274.173 133.122 280.877 136.587 288.767C141.775 300.58 146.856 314.979 153.658 326.382C157.059 332.073 160.891 337.01 165.347 340.502C169.803 343.994 174.84 346.042 180.803 346.042C189.995 346.042 197.444 342.765 203.966 337.807C213.761 330.37 221.403 319.075 229.325 309.569C233.286 304.826 237.311 300.515 241.746 297.368C246.18 294.221 251.067 292.259 256.642 292.259C264.09 292.259 270.312 295.773 275.909 300.881C284.304 308.555 291.494 319.937 299.782 329.314C308.091 338.713 317.369 346.063 329.898 346.063C346.839 346.063 356.462 338.713 366.342 331.168C376.202 323.645 386.341 315.928 403.799 315.928C421.257 315.928 431.396 323.645 441.17 331.168C450.986 338.713 460.436 346.042 477.055 346.063C493.824 346.063 503.683 342.42 512.337 338.756C520.969 335.091 528.482 331.319 540.128 331.319C551.774 331.319 559.438 335.091 568.393 338.756C577.369 342.42 587.702 346.063 605.117 346.063C605.57 346.063 605.935 346.43 605.935 346.904C605.935 347.378 605.57 347.745 605.117 347.745C587.487 347.745 576.81 344.015 567.768 340.308C558.727 336.6 551.408 333 540.128 333C528.848 333 521.701 336.6 512.983 340.308C504.265 344.015 494.061 347.745 477.055 347.745C459.898 347.745 449.931 340.027 440.158 332.504C430.342 324.96 420.719 317.631 403.778 317.609C386.836 317.609 377.214 324.96 367.333 332.504C357.473 340.027 347.334 347.745 329.876 347.745C321.05 347.745 313.753 344.274 307.424 339.144C297.93 331.448 290.461 320.066 282.69 310.668C278.815 305.969 274.854 301.765 270.591 298.769C266.329 295.773 261.787 293.962 256.599 293.962C249.71 293.962 243.941 297.174 238.495 302.153C230.336 309.612 223.082 320.95 214.299 330.478C205.538 340.006 195.162 347.766 180.739 347.766C171.03 347.766 163.517 342.593 157.468 335.048C148.384 323.709 142.378 306.874 136.458 292.949C133.509 285.986 130.603 279.735 127.417 275.294C125.824 273.074 124.188 271.306 122.466 270.121C120.744 268.935 118.978 268.31 117.041 268.31C114.458 268.31 112.37 269.409 110.325 271.479C106.751 275.1 103.63 281.718 99.6689 289.564C93.7275 301.356 85.8487 315.928 70.9737 327.546C56.1203 339.165 34.3137 347.788 0.731897 347.766C0.279834 347.766 -0.0861206 347.4 -0.0861206 346.925C-0.0861206 346.451 0.279834 346.085 0.731897 346.085" fill="#9CD2F2"/>
<path d="M0.818004 354.793C26.1981 354.793 44.6465 349.857 58.4236 342.485C79.0893 331.426 89.3146 314.85 96.526 300.924C100.143 293.962 102.984 287.667 106.041 283.033C107.569 280.726 109.162 278.808 110.97 277.45C112.779 276.092 114.824 275.316 117.127 275.316C120.205 275.316 122.939 276.674 125.372 278.959C129.613 282.947 133.122 289.672 136.587 297.54C141.775 309.353 146.856 323.752 153.658 335.156C157.059 340.847 160.891 345.783 165.347 349.275C169.803 352.767 174.84 354.815 180.803 354.815C189.995 354.815 197.444 351.538 203.966 346.58C213.761 339.144 221.403 327.848 229.325 318.342C233.286 313.599 237.311 309.288 241.746 306.141C246.18 302.994 251.067 301.032 256.642 301.032C264.09 301.032 270.312 304.546 275.909 309.655C284.304 317.35 291.494 328.71 299.782 338.087C308.091 347.486 317.369 354.836 329.898 354.836C346.839 354.836 356.462 347.486 366.342 339.941C376.202 332.418 386.341 324.701 403.799 324.701C421.257 324.701 431.396 332.418 441.17 339.941C450.986 347.486 460.436 354.815 477.055 354.836C493.824 354.836 503.683 351.193 512.337 347.529C520.969 343.864 528.482 340.092 540.128 340.092C551.774 340.092 559.438 343.864 568.393 347.529C577.369 351.193 587.702 354.836 605.117 354.836C605.57 354.836 605.935 355.203 605.935 355.677C605.935 356.151 605.57 356.518 605.117 356.518C587.487 356.518 576.81 352.789 567.768 349.081C558.727 345.373 551.408 341.773 540.128 341.773C528.848 341.773 521.701 345.373 512.983 349.081C504.265 352.789 494.061 356.518 477.055 356.518C459.898 356.518 449.931 348.801 440.158 341.278C430.342 333.733 420.719 326.404 403.778 326.382C386.836 326.382 377.214 333.733 367.333 341.278C357.473 348.801 347.334 356.518 329.876 356.518C321.05 356.518 313.753 353.047 307.424 347.917C297.93 340.221 290.461 328.84 282.69 319.441C278.815 314.742 274.854 310.538 270.591 307.542C266.329 304.546 261.787 302.735 256.599 302.735C249.71 302.735 243.941 305.947 238.495 310.927C230.336 318.385 223.082 329.724 214.299 339.251C205.538 348.779 195.162 356.539 180.739 356.539C171.03 356.539 163.517 351.366 157.468 343.821C148.384 332.483 142.378 315.647 136.458 301.722C133.509 294.759 130.603 288.508 127.417 284.067C125.824 281.847 124.188 280.08 122.466 278.894C120.744 277.708 118.978 277.083 117.041 277.083C114.458 277.083 112.37 278.183 110.325 280.252C106.751 283.873 103.63 290.491 99.6689 298.338C93.7275 310.129 85.8487 324.701 70.9737 336.32C56.1203 347.939 34.3137 356.561 0.731897 356.539C0.279834 356.539 -0.0861206 356.173 -0.0861206 355.699C-0.0861206 355.224 0.279834 354.858 0.731897 354.858" fill="#9CD2F2"/>
<path d="M0.818004 363.567C26.1981 363.567 44.6465 358.63 58.4236 351.258C79.0893 340.2 89.3146 323.623 96.526 309.698C100.143 302.735 102.984 296.441 106.041 291.806C107.569 289.5 109.162 287.581 110.97 286.223C112.779 284.865 114.824 284.089 117.127 284.089C120.205 284.089 122.939 285.447 125.372 287.732C129.613 291.72 133.122 298.446 136.587 306.314C141.775 318.126 146.856 332.526 153.658 343.929C157.059 349.62 160.891 354.556 165.347 358.048C169.803 361.541 174.84 363.588 180.803 363.588C189.995 363.588 197.444 360.312 203.966 355.354C213.761 347.917 221.403 336.622 229.325 327.115C233.286 322.373 237.311 318.062 241.746 314.914C246.18 311.767 251.067 309.806 256.642 309.806C264.09 309.806 270.312 313.319 275.909 318.428C284.304 326.124 291.494 337.484 299.782 346.861C308.091 356.259 317.369 363.61 329.898 363.61C346.839 363.61 356.462 356.259 366.342 348.715C376.202 341.191 386.341 333.474 403.799 333.474C421.257 333.474 431.396 341.191 441.17 348.715C450.986 356.259 460.436 363.588 477.055 363.61C493.824 363.61 503.683 359.967 512.337 356.302C520.969 352.638 528.482 348.865 540.128 348.865C551.774 348.865 559.438 352.638 568.393 356.302C577.369 359.967 587.702 363.61 605.117 363.61C605.57 363.61 605.935 363.976 605.935 364.451C605.935 364.925 605.57 365.291 605.117 365.291C587.487 365.291 576.81 361.562 567.768 357.854C558.727 354.147 551.408 350.547 540.128 350.547C528.848 350.547 521.701 354.147 512.983 357.854C504.265 361.562 494.061 365.291 477.055 365.291C459.898 365.291 449.931 357.574 440.158 350.051C430.342 342.506 420.719 335.177 403.778 335.156C386.836 335.156 377.214 342.506 367.333 350.051C357.473 357.574 347.334 365.291 329.876 365.291C321.05 365.291 313.753 361.821 307.424 356.69C297.93 348.995 290.461 337.613 282.69 328.215C278.815 323.515 274.854 319.312 270.591 316.316C266.329 313.319 261.787 311.509 256.599 311.509C249.71 311.509 243.941 314.72 238.495 319.7C230.336 327.158 223.082 338.497 214.299 348.025C205.538 357.553 195.162 365.313 180.739 365.313C171.03 365.313 163.517 360.139 157.468 352.595C148.384 341.256 142.378 324.421 136.458 310.495C133.509 303.533 130.603 297.282 127.417 292.841C125.824 290.621 124.188 288.853 122.466 287.667C120.744 286.482 118.978 285.857 117.041 285.857C114.458 285.857 112.37 286.956 110.325 289.025C106.751 292.647 103.63 299.265 99.6689 307.111C93.7275 318.902 85.8487 333.474 70.9737 345.093C56.1203 356.712 34.3137 365.334 0.731897 365.313C0.279834 365.313 -0.0861206 364.946 -0.0861206 364.472C-0.0861206 363.998 0.279834 363.631 0.731897 363.631" fill="#9CD2F2"/>
<path d="M0.818004 372.34C26.1981 372.34 44.6465 367.404 58.4236 360.032C79.0893 348.973 89.3146 332.397 96.526 318.471C100.143 311.509 102.984 305.214 106.041 300.58C107.569 298.273 109.162 296.355 110.97 294.997C112.779 293.639 114.824 292.863 117.127 292.863C120.205 292.863 122.939 294.221 125.372 296.506C129.613 300.493 133.122 307.219 136.587 315.087C141.775 326.9 146.856 341.299 153.658 352.703C157.059 358.393 160.891 363.33 165.347 366.822C169.803 370.314 174.84 372.362 180.803 372.362C189.995 372.362 197.444 369.085 203.966 364.127C213.761 356.69 221.403 345.395 229.325 335.889C233.286 331.146 237.311 326.835 241.746 323.688C246.18 320.541 251.067 318.579 256.642 318.579C264.09 318.579 270.312 322.093 275.909 327.202C284.304 334.897 291.494 346.257 299.782 355.634C308.091 365.033 317.369 372.383 329.898 372.383C346.839 372.383 356.462 365.033 366.342 357.488C376.202 349.965 386.341 342.248 403.799 342.248C421.257 342.248 431.396 349.965 441.17 357.488C450.986 365.033 460.436 372.362 477.055 372.383C493.824 372.383 503.683 368.74 512.337 365.076C520.969 361.411 528.482 357.639 540.128 357.639C551.774 357.639 559.438 361.411 568.393 365.076C577.369 368.74 587.702 372.383 605.117 372.383C605.57 372.383 605.935 372.75 605.935 373.224C605.935 373.698 605.57 374.065 605.117 374.065C587.487 374.065 576.81 370.336 567.768 366.628C558.727 362.92 551.408 359.32 540.128 359.32C528.848 359.32 521.701 362.92 512.983 366.628C504.265 370.336 494.061 374.065 477.055 374.065C459.898 374.065 449.931 366.348 440.158 358.825C430.342 351.28 420.719 343.951 403.778 343.929C386.836 343.929 377.214 351.28 367.333 358.825C357.473 366.348 347.334 374.065 329.876 374.065C321.05 374.065 313.753 370.594 307.424 365.464C297.93 357.768 290.461 346.387 282.69 336.988C278.815 332.289 274.854 328.085 270.591 325.089C266.329 322.093 261.787 320.282 256.599 320.282C249.71 320.282 243.941 323.494 238.495 328.473C230.336 335.932 223.082 347.27 214.299 356.798C205.538 366.326 195.162 374.086 180.739 374.086C171.03 374.086 163.517 368.913 157.468 361.368C148.384 350.03 142.378 333.194 136.458 319.269C133.509 312.306 130.603 306.055 127.417 301.614C125.824 299.394 124.188 297.626 122.466 296.441C120.744 295.255 118.978 294.63 117.041 294.63C114.458 294.63 112.37 295.73 110.325 297.799C106.751 301.42 103.63 308.038 99.6689 315.885C93.7275 327.676 85.8487 342.248 70.9737 353.867C56.1203 365.485 34.3137 374.108 0.731897 374.086C0.279834 374.086 -0.0861206 373.72 -0.0861206 373.246C-0.0861206 372.771 0.279834 372.405 0.731897 372.405" fill="#9CD2F2"/>
<path d="M431.956 147.25L430.966 152.941C430.944 153.092 430.794 153.2 430.643 153.178L424.938 152.359C424.68 152.316 424.615 151.993 424.831 151.863L431.526 146.992C431.741 146.841 432.021 146.992 431.978 147.25M427.629 141.258L426.639 146.927C426.617 147.078 426.467 147.186 426.316 147.164L420.611 146.345C420.353 146.302 420.289 146 420.504 145.849L427.177 140.978C427.392 140.827 427.672 140.978 427.629 141.236" fill="#E84242"/>
<path d="M80.6393 119.443L85.5043 116.382C85.6335 116.296 85.8057 116.339 85.9133 116.468L89.1208 121.254C89.25 121.469 89.0778 121.728 88.8195 121.685L80.7469 119.96C80.4886 119.917 80.424 119.594 80.6393 119.443ZM79.1109 126.686L83.9759 123.625C84.1051 123.539 84.2773 123.582 84.3634 123.711L87.5709 128.496C87.7001 128.712 87.5279 128.971 87.2695 128.928L79.197 127.203C78.9387 127.16 78.8741 126.837 79.0894 126.686" fill="#E84242"/>
<path d="M227.99 105.539L233.587 103.017C233.738 102.952 233.91 103.017 233.996 103.168L236.665 108.686C236.794 108.923 236.536 109.182 236.299 109.096L228.033 106.078C227.775 105.992 227.753 105.647 228.011 105.518M225.321 112.933L230.918 110.432C231.068 110.368 231.241 110.432 231.327 110.583L233.996 116.102C234.125 116.339 233.867 116.597 233.608 116.511L225.342 113.493C225.084 113.407 225.062 113.062 225.321 112.933Z" fill="#A29F98"/>
<path d="M518.58 178.873L524.715 179.175C524.887 179.175 525.016 179.326 525.016 179.498L524.887 185.642C524.887 185.901 524.564 186.03 524.37 185.836L518.365 179.391C518.171 179.197 518.321 178.873 518.58 178.873ZM512.832 184.241L518.946 184.543C519.118 184.543 519.247 184.693 519.247 184.866L519.118 191.009C519.118 191.268 518.795 191.397 518.601 191.203L512.595 184.758C512.402 184.564 512.552 184.241 512.811 184.262" fill="#A29F98"/>
</g>
<defs>
<clipPath id="clip0_47_10">
<rect width="606" height="374" fill="white"/>
</clipPath>
</defs>
</svg>
